<svg xmlns="http://www.w3.org/2000/svg" viewBox="0 4.8 154.56 46.56" role="img" aria-label="Pitstop Robotics">
<path fill="#111316" d="M3.36 51.36L9.60 51.36L9.60 40.70C11.09 43.34 13.63 44.74 17.04 44.74C24.38 44.74 27.94 38.74 27.94 31.44C27.94 24.14 24.38 18.14 17.04 18.14C13.44 18.14 10.80 19.63 9.41 22.37L9.26 18.72L3.36 18.72M9.12 31.44C9.12 27.12 10.99 23.14 15.31 23.14C19.58 23.14 21.50 27.12 21.50 31.44C21.50 35.81 19.63 39.74 15.31 39.74C10.99 39.74 9.12 35.81 9.12 31.44M30.67 18.72L30.67 44.16L36.91 44.16L36.91 18.72M43.78 12.96L43.78 18.72L39.79 18.72L39.79 23.52L43.78 23.52L43.78 36.34C43.78 41.52 46.61 44.16 51.84 44.16L56.74 44.16L56.74 39.31L52.90 39.31C50.98 39.31 50.02 38.30 50.02 36.34L50.02 23.52L56.74 23.52L56.74 18.72L50.02 18.72L50.02 12.96M74.02 26.83L80.30 26.54C79.49 21.36 75.22 18.10 69.22 18.10C62.45 18.10 58.27 21.17 58.27 26.16C58.27 30.96 62.54 32.54 68.78 33.79C71.38 34.37 74.16 34.75 74.21 37.20C74.21 39.26 71.66 40.03 69.65 40.03C66.43 40.03 64.46 38.40 63.98 35.76L57.70 36.10C58.08 41.47 62.78 44.74 69.74 44.74C75.70 44.74 80.59 42.38 80.59 37.34C80.59 32.45 76.70 30.62 69.79 29.47C67.30 29.04 64.75 28.13 64.70 26.06C64.66 24.05 66.53 22.80 68.88 22.80C71.28 22.80 73.58 24.34 74.02 26.83M86.16 12.96L86.16 18.72L82.18 18.72L82.18 23.52L86.16 23.52L86.16 36.34C86.16 41.52 88.99 44.16 94.22 44.16L99.12 44.16L99.12 39.31L95.28 39.31C93.36 39.31 92.40 38.30 92.40 36.34L92.40 23.52L99.12 23.52L99.12 18.72L92.40 18.72L92.40 12.96M112.66 44.74C120.24 44.74 125.23 39.50 125.23 31.44C125.23 23.38 120.24 18.14 112.66 18.14C105.07 18.14 100.08 23.38 100.08 31.44C100.08 39.50 105.07 44.74 112.66 44.74M106.46 31.44C106.46 26.21 108.72 23.18 112.66 23.18C116.59 23.18 118.85 26.21 118.85 31.44C118.85 36.67 116.59 39.70 112.66 39.70C108.72 39.70 106.46 36.67 106.46 31.44M127.97 51.36L134.21 51.36L134.21 40.70C135.70 43.34 138.24 44.74 141.65 44.74C148.99 44.74 152.54 38.74 152.54 31.44C152.54 24.14 148.99 18.14 141.65 18.14C138.05 18.14 135.41 19.63 134.02 22.37L133.87 18.72L127.97 18.72M133.73 31.44C133.73 27.12 135.60 23.14 139.92 23.14C144.19 23.14 146.11 27.12 146.11 31.44C146.11 35.81 144.24 39.74 139.92 39.74C135.60 39.74 133.73 35.81 133.73 31.44"/><rect x="29.71" y="4.8" width="8.16" height="8.16" fill="#0E50B3"/>
</svg>
